<?xml version="1.0" ?><svg height="32px" version="1.1" viewBox="0 0 32 32" width="32px" xmlns="http://www.w3.org/2000/svg" xmlns:sketch="http://www.bohemiancoding.com/sketch/ns" xmlns:xlink="http://www.w3.org/1999/xlink"><title/><desc/><defs/><g fill="none" fill-rule="evenodd" id="Page-1" stroke="none" stroke-width="1"><g fill="#157EFB" id="icon-22-eye"><path d="M17,9 C8,9 4,16 4,16 C4,16 8,23.000001 17,23 C26,22.999999 30,16 30,16 C30,16 26,9 17,9 L17,9 Z M17,20 C19.2091391,20 21,18.2091391 21,16 C21,13.7908609 19.2091391,12 17,12 C14.7908609,12 13,13.7908609 13,16 C13,18.2091391 14.7908609,20 17,20 L17,20 Z M17,19 C18.6568543,19 20,17.6568543 20,16 C20,14.3431457 18.6568543,13 17,13 C15.3431457,13 14,14.3431457 14,16 C14,17.6568543 15.3431457,19 17,19 L17,19 Z M17,17 C17.5522848,17 18,16.5522848 18,16 C18,15.4477152 17.5522848,15 17,15 C16.4477152,15 16,15.4477152 16,16 C16,16.5522848 16.4477152,17 17,17 L17,17 Z" id="eye"/></g></g></svg>