<svg width="1792" height="1792" viewBox="0 0 1792 1792" xmlns="http://www.w3.org/2000/svg"><path d="M1112 446q0-159-237-159h-70q-32 0-59.5 21.5t-34.5 52.5l-63 276q-2 5-2 16 0 24 17 39.5t41 15.5h53q69 0 128.5-13t112.5-41 83.5-81.5 30.5-126.5zm604 152q0 265-220 428-219 161-612 161h-61q-32 0-59 21.5t-34 52.5l-73 316q-8 36-40.5 61.5t-69.5 25.5h-213q-31 0-53-20t-22-51q0-10 13-65h151q34 0 64-23.5t38-56.5l73-316q8-33 37.5-57t63.5-24h61q390 0 607-160t217-421q0-129-51-207 183 92 183 335zm-183-185q0 264-221 428-218 161-612 161h-60q-32 0-59.5 22t-34.5 53l-73 315q-8 36-40 61.5t-69 25.5h-214q-31 0-52.5-19.5t-21.5-51.5q0-8 2-20l300-1301q8-36 40.5-61.5t69.5-25.5h444q68 0 125 4t120.5 15 113.5 30 96.5 50.5 77.5 74 49.5 103.5 18.5 136z" fill="#fff"/></svg>